# xmcd CD database file generated by LOLA_Freedb v0.9beta0
# 
# Track frame offsets:
#      150
#      19406
#      35375
#      53931
#      72464
#      90129
#      107900
#      127036
#      146111
#      164236
#      182319
#      198069
# 
# Disc length: 2901 seconds
# 
# Revision: 0 
# Processed by: cddbd v1.5.2PL0 Copyright (c) Steve Scherf et al.
# Submitted via: LOLA_Freedb v0.9beta0
# 
DISCID=a90b530c
DTITLE=Cases' Creed - Not Good At Letting Go
DYEAR=2011
DGENRE=
TTITLE0=Cases' Creed - Never Been So Good
TTITLE1=Cases' Creed - Just A Little Crazy
TTITLE2=Cases' Creed - One Half Of Us
TTITLE3=Cases' Creed - Not Good At Letting Go
TTITLE4=Cases' Creed - I'm Happy
TTITLE5=Cases' Creed - Someone Like You
TTITLE6=Cases' Creed - EZ2B Me
TTITLE7=Cases' Creed - Start Of Something Good
TTITLE8=Cases' Creed - When You Cry
TTITLE9=Cases' Creed - You Make Me Believe
TTITLE10=Cases' Creed - My Heart's A Mess
TTITLE11=Cases' Creed - Passing Through Life
EXTD=
EXTT0=ISRC CA5I51100001
EXTT1=ISRC CA5I51100002
EXTT2=ISRC CA5I51100003
EXTT3=ISRC CA5I51100004
EXTT4=ISRC CA5I51100005
EXTT5=ISRC CA5I51100006
EXTT6=ISRC CA5I51100007
EXTT7=ISRC CA5I51100008
EXTT8=ISRC CA5I51100009
EXTT9=ISRC CA5I51100010
EXTT10=ISRC CA5I51100011
EXTT11=ISRC CA5I51100012
PLAYORDER=
